<svg data-bbox="24.5 20 151 160.001" viewBox="0 0 200 200" height="200" width="200" xmlns="http://www.w3.org/2000/svg" data-type="shape">
    <g>
        <path d="M175.499 151.377V27.152c0-.391-.162-.729-.222-1.103-.036-.384.033-.759-.075-1.144-.051-.187-.189-.32-.256-.499-.017-.04-.041-.074-.058-.114-1.033-2.609-3.546-4.236-6.366-4.26-.058-.001-.105-.032-.163-.032-.106 0-.196.056-.301.061-.467.026-.925-.037-1.394.084l-92.798 14.36a7.923 7.923 0 0 0-6.526 7.804v84.439c-4.215-2.457-9.051-3.967-14.281-3.967-16.045 0-28.999 13.254-28.548 29.429.416 14.929 12.844 27.371 27.748 27.779 16.142.442 29.364-12.531 29.364-28.599l-.001-104.062 79.596-11.269v90.689c-4.216-2.457-9.052-3.967-14.282-3.967-16.045 0-29.001 13.255-28.548 29.432.417 14.929 12.846 27.37 27.75 27.777 16.142.441 29.362-12.532 29.362-28.603l-.001-.01zM53.06 165.696c-7.886 0-14.281-6.405-14.281-14.306 0-7.9 6.395-14.306 14.281-14.306 7.887 0 14.279 6.406 14.279 14.306 0 7.901-6.392 14.306-14.279 14.306zm93.876 0c-7.886 0-14.281-6.405-14.281-14.306 0-7.9 6.394-14.306 14.281-14.306 7.887 0 14.28 6.406 14.28 14.306 0 7.901-6.393 14.306-14.28 14.306z" clip-rule="evenodd" fill-rule="evenodd"></path>
    </g>
</svg>